# xmcd
#
# Track frame offsets:
#	150
#	13947
#	31085
#	46775
#	59238
#	73873
#	83731
#	94596
#	110666
#	131226
#	143692
#	163702
#	180344
#
# Disc length: 2550 seconds
#
# Revision: 1
# Processed by: cddbd v1.5PL3 Copyright (c) Steve Scherf et al.
# Submitted via: audiograbber 1.83.01
#
DISCID=b109f40d
DTITLE=Banda Clave Nueva - Amigo Mio
DYEAR=2001
DGENRE=Ethnic
TTITLE0=Amigo Mio
TTITLE1=Malancolia
TTITLE2=Sabor a canela
TTITLE3=Zapato viejo
TTITLE4=Una noche de pecado
TTITLE5=En mi despedida
TTITLE6=Mi morena
TTITLE7=La magia del recuerdo
TTITLE8=Me dejaste
TTITLE9=Quiero confesarte
TTITLE10=Te perdi
TTITLE11=Ave perdida
TTITLE12=Vas a pagar
EXTD=
EXTT0=
EXTT1=
EXTT2=
EXTT3=
EXTT4=
EXTT5=
EXTT6=
EXTT7=
EXTT8=
EXTT9=
EXTT10=
EXTT11=
EXTT12=
PLAYORDER=
